<?xml version="1.0" standalone="no"?>
<!DOCTYPE svg PUBLIC "-//W3C//DTD SVG 20010904//EN"
 "http://www.w3.org/TR/2001/REC-SVG-20010904/DTD/svg10.dtd">
<svg version="1.0" xmlns="http://www.w3.org/2000/svg"
 width="512.000000pt" height="512.000000pt" viewBox="0 0 512.000000 512.000000"
 preserveAspectRatio="xMidYMid meet">

<g transform="translate(0.000000,512.000000) scale(0.100000,-0.100000)"
fill="#000000" stroke="none">
<path d="M624 5109 c-147 -25 -286 -99 -400 -213 -93 -93 -143 -173 -187 -301
l-32 -90 0 -535 c0 -533 0 -535 23 -610 43 -136 97 -226 197 -325 75 -76 106
-99 185 -138 168 -84 154 -82 745 -82 514 0 521 0 600 23 258 75 452 270 527
529 23 77 23 88 23 598 0 590 2 575 -82 745 -39 80 -60 109 -137 185 -98 98
-186 151 -321 196 -69 23 -76 23 -580 25 -280 1 -533 -2 -561 -7z m1088 -317
c86 -35 169 -100 216 -172 77 -114 76 -108 80 -620 2 -314 0 -474 -8 -515 -35
-183 -184 -331 -364 -364 -37 -7 -224 -11 -490 -11 -470 0 -511 4 -609 57
-111 61 -204 189 -227 312 -13 71 -13 901 0 972 22 120 103 237 206 299 113
68 132 70 664 67 470 -2 476 -2 532 -25z"/>
<path d="M3438 5110 c-73 -13 -145 -39 -233 -83 -61 -31 -102 -63 -171 -132
-77 -76 -98 -105 -137 -185 -83 -168 -81 -152 -85 -703 -3 -530 1 -592 51
-715 41 -103 88 -172 172 -257 120 -120 242 -184 402 -212 67 -11 180 -13 571
-11 550 5 535 3 702 85 80 39 109 60 185 137 100 100 154 190 197 326 23 75
23 77 23 605 0 528 0 530 -23 605 -38 121 -97 223 -179 311 -90 95 -185 156
-313 201 l-95 33 -510 2 c-280 0 -531 -2 -557 -7z m1084 -318 c123 -50 219
-146 271 -272 21 -54 22 -65 25 -520 3 -514 0 -556 -58 -657 -38 -67 -113
-141 -176 -175 -100 -54 -139 -58 -616 -58 -281 0 -456 4 -490 11 -179 37
-320 178 -357 357 -7 34 -11 209 -11 490 0 355 3 449 15 501 39 164 162 290
325 333 58 15 117 17 540 15 470 -2 476 -2 532 -25z"/>
<path d="M610 2295 c-159 -33 -268 -92 -385 -210 -100 -99 -154 -188 -197
-325 -23 -75 -23 -77 -23 -610 l0 -535 32 -90 c45 -131 94 -208 192 -305 95
-95 188 -150 321 -192 75 -23 77 -23 605 -23 528 0 530 0 605 23 136 43 226
97 326 197 77 76 98 105 137 185 82 167 80 152 85 702 4 530 -1 593 -51 716
-42 104 -88 173 -177 263 -71 72 -100 93 -180 132 -168 83 -150 81 -720 83
-394 2 -519 0 -570 -11z m1032 -296 c179 -37 320 -178 357 -357 7 -34 11 -209
11 -490 0 -476 -4 -517 -57 -614 -36 -65 -108 -139 -174 -177 -103 -59 -143
-62 -659 -59 -459 3 -466 3 -522 26 -123 50 -219 146 -271 272 -21 54 -22 65
-25 517 -2 295 1 483 7 520 23 123 109 246 219 310 99 58 134 62 619 62 286 1
461 -3 495 -10z"/>
<path d="M3425 2296 c-149 -28 -273 -95 -390 -211 -84 -84 -130 -153 -172
-257 -50 -123 -54 -185 -51 -715 4 -551 2 -535 85 -703 39 -80 60 -109 137
-185 100 -100 190 -154 326 -197 75 -23 77 -23 600 -23 404 0 537 3 575 13
274 73 472 262 557 532 23 75 23 77 23 605 0 528 0 530 -23 605 -43 136 -97
226 -197 326 -76 77 -105 98 -185 137 -169 83 -150 81 -715 83 -376 2 -517 -1
-570 -10z m1044 -301 c170 -40 298 -170 336 -340 14 -60 16 -141 13 -535 -3
-459 -3 -466 -26 -522 -51 -126 -160 -231 -284 -275 -49 -16 -94 -18 -548 -18
-495 0 -495 0 -552 23 -83 34 -170 103 -217 173 -76 113 -75 108 -79 619 -2
315 0 473 8 515 34 178 168 318 343 361 82 20 921 19 1006 -1z"/>
</g>
</svg>
